<?xml version="1.0" encoding="utf-8"?>
<!-- Generator: Adobe Illustrator 27.0.0, SVG Export Plug-In . SVG Version: 6.00 Build 0)  -->
<svg version="1.1" id="logo" xmlns="http://www.w3.org/2000/svg" xmlns:xlink="http://www.w3.org/1999/xlink" x="0px" y="0px"
	 viewBox="0 0 799.9 587.3" style="enable-background:new 0 0 799.9 587.3;" xml:space="preserve">
<style type="text/css">
	.st0{fill-rule:evenodd;clip-rule:evenodd;fill:#131313;}
	.st1{fill:url(#SVGID_1_);}
</style>
<g>
	<g>
		<path class="st0" d="M311.4,489.4c-0.9-1.5-2.5-2.5-4.3-2.5H303c-1.1,0-2.1,0.6-2.6,1.6l-35.7,70.9c-0.2,0.4-0.5,0.7-0.9,0.9
			c-1,0.5-2.2,0.1-2.7-0.9l-35.7-70.9c-0.5-1-1.5-1.6-2.6-1.6h-4.1c-1.8,0-3.4,0.9-4.3,2.5l-4.6,7.9c-0.8,1.4-0.8,3-0.1,4.4
			l42.5,83.5c0.7,1.3,2.1,2.2,3.6,2.2h14c1.5,0,2.9-0.8,3.6-2.2l42.5-83.5h0.1c0.7-1.4,0.7-3-0.1-4.4L311.4,489.4z"/>
		<path class="st0" d="M106.6,497.3l-4.5-7.9c-0.9-1.5-2.5-2.4-4.2-2.4h-4.1c-1.1,0-2.1,0.6-2.6,1.6l-35.7,70.9
			c-0.2,0.4-0.5,0.7-0.9,0.9c-1,0.5-2.2,0.1-2.7-0.9l-35.7-71c-0.5-1-1.5-1.6-2.6-1.6H9.4c-1.8,0-3.4,0.9-4.3,2.4l-4.5,7.9
			c-0.8,1.4-0.8,3-0.1,4.4L43,585.2c0.7,1.3,2.1,2.2,3.6,2.2h14c1.5,0,2.9-0.8,3.6-2.2l42.5-83.5h0
			C107.4,500.3,107.4,498.6,106.6,497.3z"/>
		<path class="st0" d="M167.3,488.1c-0.8-0.8-1.9-1.2-3-1.2h-6.5c-1.8,0-3.5,0.9-4.4,2.5l-4.7,7.9c-0.4,0.7-0.6,1.6-0.6,2.4v83.6
			c0,2.2,1.9,4.1,4.2,4.1h12.1c2.3,0,4.1-1.8,4.1-4v-92.2C168.5,490,168.1,489,167.3,488.1L167.3,488.1z"/>
		<path class="st0" d="M432.2,489.4c-0.9-1.5-2.4-2.5-4.2-2.4h-60.4c-1.7,0-3.4,0.9-4.2,2.4l-4.2,7.3c-0.6,1.1-0.9,2.3-0.9,3.5v73.9
			c0,1.2,0.3,2.4,0.9,3.5l4.2,7.3c0.9,1.5,2.5,2.4,4.2,2.4h60.5c1.7,0,3.3-0.9,4.1-2.4l4.2-7.3c0.6-1.1,0.9-2.3,0.9-3.5v-1.8
			c0,0,0,0,0,0c0-1.5-1.2-2.7-2.8-2.7h-55.1c0,0,0,0,0,0c-1.1,0-2-0.9-2-2v-19.8c0-1.1,0.9-2,2-2h37.4c1.8,0,3.3-1.5,3.3-3.4v-11
			c0-1.8-1.5-3.3-3.3-3.3h-37.4c0,0,0,0,0,0c-1.1,0-2-0.9-2-2v-19.2c0-1.1,0.9-2,2-2h55.1c1.5,0,2.7-1.2,2.8-2.7v-1.8
			c0-1.2-0.3-2.4-0.9-3.5L432.2,489.4z"/>
		<path class="st0" d="M742.1,504.7h55.1c0,0,0,0,0.1,0c1.5,0,2.7-1.3,2.7-2.8v-1.8c0-1.2-0.3-2.4-0.9-3.5l-4.3-7.4
			c-0.9-1.5-2.4-2.4-4.1-2.4h-60.4c-1.7,0-3.4,0.9-4.2,2.4l-4.2,7.3c-0.6,1.1-0.9,2.3-0.9,3.5v74c0,1.2,0.3,2.4,0.9,3.5l4.2,7.3
			c0.9,1.5,2.5,2.4,4.2,2.4h60.4c1.7,0,3.3-0.9,4.1-2.4l4.3-7.4c0.6-1.1,0.9-2.3,0.9-3.5v-1.8c0-1.5-1.2-2.7-2.7-2.7h-55.1
			c0,0,0,0,0,0c-1.1,0-2-0.9-2-2v-19.8c0-1.1,0.9-2,2-2h37.3c1.8,0,3.3-1.5,3.3-3.3v-11c0-1.8-1.5-3.3-3.3-3.3h-37.4c0,0,0,0,0,0
			c-1.1,0-2-0.9-2-2v-19.2C740,505.7,740.9,504.8,742.1,504.7z"/>
		<path class="st0" d="M546.3,543.5c8.6-4.1,15.3-13,15.3-27.5c0-11-4.3-17.6-8-21.2c-5.2-5-12.1-7.8-19.4-7.8h-47.5
			c-1.7,0-3.4,0.9-4.3,2.4l-4.5,7.9c-0.4,0.7-0.6,1.5-0.6,2.3v83.8c0,2.3,1.8,4.1,4.1,4.1h11.7c2.2,0,4-1.8,4-4V546h28.2l20,39.8
			c0.5,1,1.5,1.6,2.6,1.6h4.1c1.8,0,3.4-0.9,4.2-2.4l4.6-7.9c0.8-1.4,0.8-3,0.1-4.4L546.3,543.5z M534.4,528.2h-37.1v-23.5h37.1
			c6.4,0,9.4,4.3,9.4,11.2C543.7,524,540.7,528.2,534.4,528.2z"/>
		<path class="st0" d="M653.3,528.7h-24.2c-7.7,0-8.9-6.5-8.9-11.4V517c0-5,1.4-11.5,8.9-11.5h44.2c1.5,0,2.7-1.2,2.8-2.7
			c0,0,0,0,0,0V501c0-1.2-0.3-2.4-0.9-3.5l-4.3-7.3c-0.9-1.5-2.4-2.4-4.2-2.4h-37.6c-17.1,0-26.6,13.9-26.6,29.3v0.2
			c0,16.4,10.5,29.3,26.6,29.3h24.2c7.5,0,8.9,6.5,8.9,11.4v0.2c0,4.9-1.1,11.4-8.9,11.4h-44.2c-1.5-0.1-2.7,1.1-2.8,2.6
			c0,0,0,0.1,0,0.1v1.9c0,1.2,0.3,2.4,0.9,3.5l4.3,7.4c0.9,1.5,2.4,2.4,4.2,2.4h37.6c16.1,0,26.6-12.9,26.6-29.3v-0.2
			C679.9,542.5,670.4,528.7,653.3,528.7z"/>
	</g>
	<linearGradient id="SVGID_1_" gradientUnits="userSpaceOnUse" x1="155.4421" y1="186.3907" x2="646.9286" y2="212.1484">
		<stop  offset="5.000000e-02" style="stop-color:#4FD0ED"/>
		<stop  offset="0.25" style="stop-color:#03AADA"/>
		<stop  offset="0.6" style="stop-color:#4160F2"/>
		<stop  offset="1" style="stop-color:#C161D0"/>
	</linearGradient>
	<path class="st1" d="M641.3,257.8c-18.4-90.7-64.2-171-128-231.4c-9.1-7.6-20.9-13.4-32.3-17.6c-10.5-4.8-44.7-8.3-85.3-8.3
		c-40.5,0-74.6,3.5-85.2,8.3c-11.6,4.4-22.7,11.2-32.3,20.5C215.7,89.7,170.7,170,152.6,260.7c-10,49.8,18.6,99.1,64.9,114.4
		c36.8,12.2,74.8,17.5,116.2,19.9c18.6,1.6,39.1,1.9,60.7,1.9c43.1-0.9,79-2.9,108-8.2c25-3.3,49.4-8.8,72.9-16.5
		C622.4,356.9,651.5,307.7,641.3,257.8z M223.2,356.2c-37.7-12.5-60.1-51.8-52.2-91.5c15.6-77.9,51.6-148.4,104.6-205.2
		c0.1-0.2,9-11.3,21.6-21.1c0.2-0.2,0.5-0.4,0.7-0.6c11.7-9,26.4-16.7,40.3-13.5c0,0-12.4,6.2-30,24.3
		c-52.9,57.6-90.7,130.2-107.1,210.9c-8.2,40.6,9.5,80.8,41.6,102.6C236.3,360.3,229.7,358.4,223.2,356.2z M236.5,323.4
		c-11.8-16.5-17-37.6-12.7-58.9c14.7-73,47.1-138.5,95.7-193.1l0.8-0.8c0,0,39.8-47,61.4-39c0,0-20.8,12.9-45.9,46.5l-0.6,0.8
		c-39.2,51.6-67.5,112.4-81.1,178.9c-5.9,28.8,1.4,57.4,17.7,79.4c3.6,4.4,15,17.6,24.8,23.4C296.7,360.6,258.4,356,236.5,323.4z
		 M479.4,347.9c-4.9,3.3-19,10.3-24,11.7c-15.9,5.6-22.5,6.8-39.3,8.3c-9.1,0.9-25.1,1.2-33,0.1c-24.9-3.4-30-4.7-54.3-13.8
		c-16.2-6.1-30.5-18-39.6-35c-9.1-17.1-12.2-37-8.7-56c0.4-1.9,0.8-3.9,1.2-6.1c1-5.2,2-10.6,3.3-15.1c7.6-33.3,19.7-65.6,35.8-95.7
		c15.9-29.8,35.4-57,57.9-80.8c4-4.2,7.1-7.8,11.5-10.7c5.2-3.9,8.4-1.5,11-0.2c4.1,2,8,5.5,11.8,9c16.8,17.1,32.1,36.5,45.7,57.7
		c13.2,20.8,24.8,43.4,34.3,67.1c9.3,23.2,16.6,48.7,21.7,75.7l0.3,2.1c2.6,17.4,0,35-7.7,50.7C500.7,329.9,490.9,340.9,479.4,347.9
		z M557.4,312.1c-19,39.9-60.1,46.2-60.1,46.2c2.6-1.7,5.4-3.9,8-6.4c23-22.9,34.6-56.9,27.7-91.3c-13.8-69.2-42.7-131.5-83.7-184.4
		l-0.6-0.8c-24-31.7-38.3-40.9-38.3-40.9c23.8-6.3,59.8,39.9,59.8,39.9c46.7,53.9,78.7,118.8,93.1,190.1c2.9,14.5,1.4,29-3.6,42
		c-0.4,1-0.8,2-1.2,3C558.2,310.4,557.8,311.2,557.4,312.1z M567.6,346.1c-2.4,0.8-4.8,1.5-7.2,2.2c21.6-22.8,32.3-55.7,25.5-88.9
		c-18-89.3-62.4-168.5-124.3-228.6l-7.7-6.6c14.5,2.5,27.7,10.7,37.7,18.7c0.1,0.1,0.2,0.2,0.4,0.3c10.3,8.3,17.2,16.5,18.7,18.3
		c53.2,55.9,89.4,125.2,105,201.9C623.2,299.3,602.4,334.8,567.6,346.1z"/>
</g>
</svg>
